<svg xmlns="http://www.w3.org/2000/svg" width="36" height="38" viewBox="0 0 36 38"><path fill="#bdbdbd" d="M18.07 4.51c.62-.69 1.06-1.28 1.59-1.77a5.9 5.9 0 0 1 6.2-1.4 5.69 5.69 0 0 1 4.01 4.64c.14.74.39 1 1.14 1.14 2.3.43 3.9 1.76 4.64 4.02a5.9 5.9 0 0 1-1.3 6.11c-.51.57-1.11 1.06-1.95 1.85.58.46 1.1.8 1.53 1.22a5.94 5.94 0 0 1 1.77 6.4c-.75 2.49-2.56 3.81-5.08 4.25a6.8 6.8 0 0 0-.42.1c-.03 0-.06.03-.14.08-.38 2.99-1.91 5.09-5 5.72-3.04.62-5.16-1.04-7.17-3.45-.47.58-.81 1.1-1.24 1.53a5.96 5.96 0 0 1-6.4 1.74c-2.45-.74-3.76-2.53-4.21-5-.04-.17-.06-.35-.1-.6-2.98-.4-5.12-1.87-5.79-4.96-.67-3.1 1.01-5.22 3.4-7.22-.61-.52-1.14-.9-1.6-1.37a5.9 5.9 0 0 1-1.59-6.43c.78-2.38 2.54-3.67 4.99-4.06.18-.03.35-.08.57-.13.43-3 1.89-5.13 5-5.78 3.07-.65 5.15 1.03 7.15 3.37z"/></svg>